<?xml version="1.0" encoding="UTF-8"?>
<!--Generator: Apple Native CoreSVG 123-->
<!DOCTYPE svg
PUBLIC "-//W3C//DTD SVG 1.1//EN"
       "http://www.w3.org/Graphics/SVG/1.1/DTD/svg11.dtd">
<svg version="1.1" xmlns="http://www.w3.org/2000/svg" xmlns:xlink="http://www.w3.org/1999/xlink" width="3300" height="2200">
 <!--glyph: "uni10024E.medium", point size: 100.000000, font version: "Version 15.0d7e11", template writer version: "5"-->
 <g id="Notes">
  <rect height="2200" id="artboard" style="fill:white;opacity:1" width="3300" x="0" y="0"/>
  <line id="" style="fill:none;stroke:black;opacity:1;stroke-width:0.5;" x1="263" x2="3036" y1="292" y2="292"/>
  <text style="stroke:none;fill:black;font-family:-apple-system,&quot;SF Pro Display&quot;,&quot;SF Pro Text&quot;,Helvetica,sans-serif;font-weight:bold;" transform="matrix(1 0 0 1 263 322)">Weight/Scale Variations</text>
  <text style="stroke:none;fill:black;font-family:-apple-system,&quot;SF Pro Display&quot;,&quot;SF Pro Text&quot;,Helvetica,sans-serif;text-anchor:middle;" transform="matrix(1 0 0 1 559.711 322)">Ultralight</text>
  <text style="stroke:none;fill:black;font-family:-apple-system,&quot;SF Pro Display&quot;,&quot;SF Pro Text&quot;,Helvetica,sans-serif;text-anchor:middle;" transform="matrix(1 0 0 1 856.422 322)">Thin</text>
  <text style="stroke:none;fill:black;font-family:-apple-system,&quot;SF Pro Display&quot;,&quot;SF Pro Text&quot;,Helvetica,sans-serif;text-anchor:middle;" transform="matrix(1 0 0 1 1153.13 322)">Light</text>
  <text style="stroke:none;fill:black;font-family:-apple-system,&quot;SF Pro Display&quot;,&quot;SF Pro Text&quot;,Helvetica,sans-serif;text-anchor:middle;" transform="matrix(1 0 0 1 1449.84 322)">Regular</text>
  <text style="stroke:none;fill:black;font-family:-apple-system,&quot;SF Pro Display&quot;,&quot;SF Pro Text&quot;,Helvetica,sans-serif;text-anchor:middle;" transform="matrix(1 0 0 1 1746.56 322)">Medium</text>
  <text style="stroke:none;fill:black;font-family:-apple-system,&quot;SF Pro Display&quot;,&quot;SF Pro Text&quot;,Helvetica,sans-serif;text-anchor:middle;" transform="matrix(1 0 0 1 2043.27 322)">Semibold</text>
  <text style="stroke:none;fill:black;font-family:-apple-system,&quot;SF Pro Display&quot;,&quot;SF Pro Text&quot;,Helvetica,sans-serif;text-anchor:middle;" transform="matrix(1 0 0 1 2339.98 322)">Bold</text>
  <text style="stroke:none;fill:black;font-family:-apple-system,&quot;SF Pro Display&quot;,&quot;SF Pro Text&quot;,Helvetica,sans-serif;text-anchor:middle;" transform="matrix(1 0 0 1 2636.69 322)">Heavy</text>
  <text style="stroke:none;fill:black;font-family:-apple-system,&quot;SF Pro Display&quot;,&quot;SF Pro Text&quot;,Helvetica,sans-serif;text-anchor:middle;" transform="matrix(1 0 0 1 2933.4 322)">Black</text>
  <line id="" style="fill:none;stroke:black;opacity:1;stroke-width:0.5;" x1="263" x2="3036" y1="1903" y2="1903"/>
  <g id="" transform="matrix(1 0 0 1 263 1933)">
   <path d="M 9.24805 0.830078 C 13.5547 0.830078 17.1387 -2.74414 17.1387 -7.05078 C 17.1387 -11.3574 13.5449 -14.9316 9.23828 -14.9316 C 4.94141 -14.9316 1.36719 -11.3574 1.36719 -7.05078 C 1.36719 -2.74414 4.95117 0.830078 9.24805 0.830078 Z M 9.24805 -0.654297 C 5.70312 -0.654297 2.87109 -3.49609 2.87109 -7.05078 C 2.87109 -10.6055 5.69336 -13.4473 9.23828 -13.4473 C 12.793 -13.4473 15.6348 -10.6055 15.6445 -7.05078 C 15.6543 -3.49609 12.8027 -0.654297 9.24805 -0.654297 Z M 9.22852 -3.42773 C 9.69727 -3.42773 9.9707 -3.74023 9.9707 -4.25781 L 9.9707 -6.31836 L 12.1973 -6.31836 C 12.6953 -6.31836 13.0371 -6.57227 13.0371 -7.04102 C 13.0371 -7.51953 12.7148 -7.7832 12.1973 -7.7832 L 9.9707 -7.7832 L 9.9707 -10.0098 C 9.9707 -10.5273 9.69727 -10.8496 9.22852 -10.8496 C 8.75977 -10.8496 8.50586 -10.5078 8.50586 -10.0098 L 8.50586 -7.7832 L 6.29883 -7.7832 C 5.78125 -7.7832 5.44922 -7.51953 5.44922 -7.04102 C 5.44922 -6.57227 5.80078 -6.31836 6.29883 -6.31836 L 8.50586 -6.31836 L 8.50586 -4.25781 C 8.50586 -3.75977 8.75977 -3.42773 9.22852 -3.42773 Z"/>
  </g>
  <g id="" transform="matrix(1 0 0 1 281.506 1933)">
   <path d="M 11.709 2.91016 C 17.1582 2.91016 21.6699 -1.60156 21.6699 -7.05078 C 21.6699 -12.4902 17.1484 -17.0117 11.6992 -17.0117 C 6.25977 -17.0117 1.74805 -12.4902 1.74805 -7.05078 C 1.74805 -1.60156 6.26953 2.91016 11.709 2.91016 Z M 11.709 1.25 C 7.09961 1.25 3.41797 -2.44141 3.41797 -7.05078 C 3.41797 -11.6504 7.08984 -15.3516 11.6992 -15.3516 C 16.3086 -15.3516 20 -11.6504 20.0098 -7.05078 C 20.0195 -2.44141 16.3184 1.25 11.709 1.25 Z M 11.6895 -2.41211 C 12.207 -2.41211 12.5195 -2.77344 12.5195 -3.33984 L 12.5195 -6.23047 L 15.5762 -6.23047 C 16.123 -6.23047 16.5039 -6.51367 16.5039 -7.03125 C 16.5039 -7.55859 16.1426 -7.86133 15.5762 -7.86133 L 12.5195 -7.86133 L 12.5195 -10.9277 C 12.5195 -11.5039 12.207 -11.8555 11.6895 -11.8555 C 11.1719 -11.8555 10.8789 -11.4844 10.8789 -10.9277 L 10.8789 -7.86133 L 7.83203 -7.86133 C 7.26562 -7.86133 6.89453 -7.55859 6.89453 -7.03125 C 6.89453 -6.51367 7.28516 -6.23047 7.83203 -6.23047 L 10.8789 -6.23047 L 10.8789 -3.33984 C 10.8789 -2.79297 11.1719 -2.41211 11.6895 -2.41211 Z"/>
  </g>
  <g id="" transform="matrix(1 0 0 1 304.924 1933)">
   <path d="M 14.9707 5.67383 C 21.9336 5.67383 27.6953 -0.078125 27.6953 -7.04102 C 27.6953 -14.0039 21.9238 -19.7559 14.9609 -19.7559 C 8.00781 -19.7559 2.25586 -14.0039 2.25586 -7.04102 C 2.25586 -0.078125 8.01758 5.67383 14.9707 5.67383 Z M 14.9707 3.85742 C 8.93555 3.85742 4.08203 -1.00586 4.08203 -7.04102 C 4.08203 -13.0762 8.92578 -17.9395 14.9609 -17.9395 C 21.0059 -17.9395 25.8594 -13.0762 25.8691 -7.04102 C 25.8789 -1.00586 21.0156 3.85742 14.9707 3.85742 Z M 14.9512 -1.06445 C 15.5176 -1.06445 15.8691 -1.45508 15.8691 -2.06055 L 15.8691 -6.13281 L 20.1074 -6.13281 C 20.6934 -6.13281 21.1133 -6.46484 21.1133 -7.02148 C 21.1133 -7.59766 20.7227 -7.93945 20.1074 -7.93945 L 15.8691 -7.93945 L 15.8691 -12.1875 C 15.8691 -12.8027 15.5176 -13.1934 14.9512 -13.1934 C 14.3848 -13.1934 14.0625 -12.7832 14.0625 -12.1875 L 14.0625 -7.93945 L 9.83398 -7.93945 C 9.21875 -7.93945 8.80859 -7.59766 8.80859 -7.02148 C 8.80859 -6.46484 9.23828 -6.13281 9.83398 -6.13281 L 14.0625 -6.13281 L 14.0625 -2.06055 C 14.0625 -1.47461 14.3848 -1.06445 14.9512 -1.06445 Z"/>
  </g>
  <text style="stroke:none;fill:black;font-family:-apple-system,&quot;SF Pro Display&quot;,&quot;SF Pro Text&quot;,Helvetica,sans-serif;font-weight:bold;" transform="matrix(1 0 0 1 263 1953)">Design Variations</text>
  <text style="stroke:none;fill:black;font-family:-apple-system,&quot;SF Pro Display&quot;,&quot;SF Pro Text&quot;,Helvetica,sans-serif;" transform="matrix(1 0 0 1 263 1971)">Symbols are supported in up to nine weights and three scales.</text>
  <text style="stroke:none;fill:black;font-family:-apple-system,&quot;SF Pro Display&quot;,&quot;SF Pro Text&quot;,Helvetica,sans-serif;" transform="matrix(1 0 0 1 263 1989)">For optimal layout with text and other symbols, vertically align</text>
  <text style="stroke:none;fill:black;font-family:-apple-system,&quot;SF Pro Display&quot;,&quot;SF Pro Text&quot;,Helvetica,sans-serif;" transform="matrix(1 0 0 1 263 2007)">symbols with the adjacent text.</text>
  <rect height="14" id="" style="fill:#00AEEF;stroke:none;opacity:0.4;" width="3" x="776" y="1919"/>
  <g id="" transform="matrix(1 0 0 1 779 1933)">
   <path d="M 10.5273 0 L 12.373 0 L 7.17773 -14.0918 L 5.43945 -14.0918 L 0.244141 0 L 2.08984 0 L 3.50586 -4.0332 L 9.11133 -4.0332 Z M 6.2793 -11.9531 L 6.33789 -11.9531 L 8.59375 -5.52734 L 4.02344 -5.52734 Z"/>
  </g>
  <rect height="14" id="" style="fill:#00AEEF;stroke:none;opacity:0.4;" width="3" x="791.617" y="1919"/>
  <text style="stroke:none;fill:black;font-family:-apple-system,&quot;SF Pro Display&quot;,&quot;SF Pro Text&quot;,Helvetica,sans-serif;font-weight:bold;" transform="matrix(1 0 0 1 776 1953)">Margins</text>
  <text style="stroke:none;fill:black;font-family:-apple-system,&quot;SF Pro Display&quot;,&quot;SF Pro Text&quot;,Helvetica,sans-serif;" transform="matrix(1 0 0 1 776 1971)">Leading and trailing margins on the left and right side of each symbol</text>
  <text style="stroke:none;fill:black;font-family:-apple-system,&quot;SF Pro Display&quot;,&quot;SF Pro Text&quot;,Helvetica,sans-serif;" transform="matrix(1 0 0 1 776 1989)">can be adjusted by modifying the width of the blue rectangles.</text>
  <text style="stroke:none;fill:black;font-family:-apple-system,&quot;SF Pro Display&quot;,&quot;SF Pro Text&quot;,Helvetica,sans-serif;" transform="matrix(1 0 0 1 776 2007)">Modifications are automatically applied proportionally to all</text>
  <text style="stroke:none;fill:black;font-family:-apple-system,&quot;SF Pro Display&quot;,&quot;SF Pro Text&quot;,Helvetica,sans-serif;" transform="matrix(1 0 0 1 776 2025)">scales and weights.</text>
  <g id="" transform="matrix(1 0 0 1 1289 1933)">
   <path d="M 2.83203 3.11523 L 4.375 4.6582 C 5.22461 5.48828 6.19141 5.41992 7.06055 4.46289 L 17.2754 -6.66016 C 17.7051 -6.36719 18.0957 -6.37695 18.5645 -6.47461 L 19.6094 -6.68945 L 20.3027 -5.99609 L 20.2539 -5.47852 C 20.1855 -4.95117 20.3516 -4.53125 20.8496 -4.0332 L 21.6602 -3.22266 C 22.168 -2.71484 22.8223 -2.68555 23.3008 -3.16406 L 26.5527 -6.41602 C 27.0312 -6.89453 27.0117 -7.54883 26.5039 -8.05664 L 25.6836 -8.87695 C 25.1855 -9.375 24.7754 -9.55078 24.2383 -9.47266 L 23.7109 -9.41406 L 23.0566 -10.0781 L 23.3398 -11.2207 C 23.4863 -11.7871 23.3398 -12.2559 22.7148 -12.8613 L 20.3027 -15.2539 C 16.7578 -18.7793 12.2266 -18.6719 9.11133 -15.5371 C 8.69141 -15.1074 8.64258 -14.5215 8.91602 -14.0918 C 9.15039 -13.7207 9.62891 -13.4961 10.2734 -13.6621 C 11.7871 -14.043 13.3008 -13.9258 14.7852 -12.9199 L 14.1602 -11.3379 C 13.9258 -10.752 13.9453 -10.2734 14.1797 -9.83398 L 3.01758 0.439453 C 2.08008 1.30859 1.97266 2.25586 2.83203 3.11523 Z M 10.6738 -15.1465 C 13.3398 -17.1387 16.6504 -16.8262 19.0527 -14.4141 L 21.6797 -11.8066 C 21.9141 -11.5723 21.9434 -11.3867 21.8848 -11.0938 L 21.5039 -9.53125 L 23.0762 -7.95898 L 24.043 -8.04688 C 24.3262 -8.07617 24.4141 -8.05664 24.6387 -7.83203 L 25.2637 -7.20703 L 22.5098 -4.46289 L 21.8848 -5.07812 C 21.6602 -5.30273 21.6406 -5.40039 21.6699 -5.68359 L 21.7578 -6.64062 L 20.1953 -8.20312 L 18.5742 -7.89062 C 18.291 -7.83203 18.1445 -7.83203 17.9102 -8.07617 L 15.7324 -10.2539 C 15.5078 -10.4883 15.4785 -10.625 15.6055 -10.9473 L 16.5527 -13.2227 C 14.9512 -14.7559 12.8418 -15.6055 10.8008 -14.9512 C 10.7129 -14.9219 10.6445 -14.9414 10.6152 -14.9805 C 10.5859 -15.0293 10.5859 -15.0781 10.6738 -15.1465 Z M 4.10156 2.41211 C 3.61328 1.91406 3.78906 1.61133 4.12109 1.30859 L 15.0781 -8.80859 L 16.3086 -7.57812 L 6.15234 3.34961 C 5.84961 3.68164 5.46875 3.7793 5.06836 3.37891 Z"/>
  </g>
  <text style="stroke:none;fill:black;font-family:-apple-system,&quot;SF Pro Display&quot;,&quot;SF Pro Text&quot;,Helvetica,sans-serif;font-weight:bold;" transform="matrix(1 0 0 1 1289 1953)">Exporting</text>
  <text style="stroke:none;fill:black;font-family:-apple-system,&quot;SF Pro Display&quot;,&quot;SF Pro Text&quot;,Helvetica,sans-serif;" transform="matrix(1 0 0 1 1289 1971)">Symbols should be outlined when exporting to ensure the</text>
  <text style="stroke:none;fill:black;font-family:-apple-system,&quot;SF Pro Display&quot;,&quot;SF Pro Text&quot;,Helvetica,sans-serif;" transform="matrix(1 0 0 1 1289 1989)">design is preserved when submitting to Xcode.</text>
  <text id="template-version" style="stroke:none;fill:black;font-family:-apple-system,&quot;SF Pro Display&quot;,&quot;SF Pro Text&quot;,Helvetica,sans-serif;text-anchor:end;" transform="matrix(1 0 0 1 3036 1933)">Template v.1.0</text>
  <text style="stroke:none;fill:black;font-family:-apple-system,&quot;SF Pro Display&quot;,&quot;SF Pro Text&quot;,Helvetica,sans-serif;text-anchor:end;" transform="matrix(1 0 0 1 3036 1951)">Generated from arrowshape.turn.up.left.circle</text>
  <text style="stroke:none;fill:black;font-family:-apple-system,&quot;SF Pro Display&quot;,&quot;SF Pro Text&quot;,Helvetica,sans-serif;text-anchor:end;" transform="matrix(1 0 0 1 3036 1969)">Typeset at 100 points</text>
  <text style="stroke:none;fill:black;font-family:-apple-system,&quot;SF Pro Display&quot;,&quot;SF Pro Text&quot;,Helvetica,sans-serif;" transform="matrix(1 0 0 1 263 726)">Small</text>
  <text style="stroke:none;fill:black;font-family:-apple-system,&quot;SF Pro Display&quot;,&quot;SF Pro Text&quot;,Helvetica,sans-serif;" transform="matrix(1 0 0 1 263 1156)">Medium</text>
  <text style="stroke:none;fill:black;font-family:-apple-system,&quot;SF Pro Display&quot;,&quot;SF Pro Text&quot;,Helvetica,sans-serif;" transform="matrix(1 0 0 1 263 1586)">Large</text>
 </g>
 <g id="Guides">
  <g id="H-reference" style="fill:#27AAE1;stroke:none;" transform="matrix(1 0 0 1 339 696)">
   <path d="M 54.9316 0 L 57.666 0 L 30.5664 -70.459 L 28.0762 -70.459 L 0.976562 0 L 3.66211 0 L 12.9395 -24.4629 L 45.7031 -24.4629 Z M 29.1992 -67.0898 L 29.4434 -67.0898 L 44.8242 -26.709 L 13.8184 -26.709 Z"/>
  </g>
  <line id="Baseline-S" style="fill:none;stroke:#27AAE1;opacity:1;stroke-width:0.577;" x1="263" x2="3036" y1="696" y2="696"/>
  <line id="Capline-S" style="fill:none;stroke:#27AAE1;opacity:1;stroke-width:0.577;" x1="263" x2="3036" y1="625.541" y2="625.541"/>
  <g id="H-reference" style="fill:#27AAE1;stroke:none;" transform="matrix(1 0 0 1 339 1126)">
   <path d="M 54.9316 0 L 57.666 0 L 30.5664 -70.459 L 28.0762 -70.459 L 0.976562 0 L 3.66211 0 L 12.9395 -24.4629 L 45.7031 -24.4629 Z M 29.1992 -67.0898 L 29.4434 -67.0898 L 44.8242 -26.709 L 13.8184 -26.709 Z"/>
  </g>
  <line id="Baseline-M" style="fill:none;stroke:#27AAE1;opacity:1;stroke-width:0.577;" x1="263" x2="3036" y1="1126" y2="1126"/>
  <line id="Capline-M" style="fill:none;stroke:#27AAE1;opacity:1;stroke-width:0.577;" x1="263" x2="3036" y1="1055.54" y2="1055.54"/>
  <g id="H-reference" style="fill:#27AAE1;stroke:none;" transform="matrix(1 0 0 1 339 1556)">
   <path d="M 54.9316 0 L 57.666 0 L 30.5664 -70.459 L 28.0762 -70.459 L 0.976562 0 L 3.66211 0 L 12.9395 -24.4629 L 45.7031 -24.4629 Z M 29.1992 -67.0898 L 29.4434 -67.0898 L 44.8242 -26.709 L 13.8184 -26.709 Z"/>
  </g>
  <line id="Baseline-L" style="fill:none;stroke:#27AAE1;opacity:1;stroke-width:0.577;" x1="263" x2="3036" y1="1556" y2="1556"/>
  <line id="Capline-L" style="fill:none;stroke:#27AAE1;opacity:1;stroke-width:0.577;" x1="263" x2="3036" y1="1485.54" y2="1485.54"/>
  <rect height="119.336" id="left-margin" style="fill:#00AEEF;stroke:none;opacity:0.4;" width="8.74023" x="1391.3" y="1030.79"/>
  <rect height="119.336" id="right-margin" style="fill:#00AEEF;stroke:none;opacity:0.4;" width="8.74023" x="1499.65" y="1030.79"/>
 </g>
 <g id="Symbols">
  <g id="Black-L" transform="matrix(1 0 0 1 2854.05 1556)">
   <path d="M 79.3457 32.8613 C 116.748 32.8613 147.412 2.19727 147.412 -35.2051 C 147.412 -72.6074 116.748 -103.271 79.2969 -103.271 C 41.8945 -103.271 11.2793 -72.6074 11.2793 -35.2051 C 11.2793 2.19727 41.9434 32.8613 79.3457 32.8613 Z M 79.3457 12.4023 C 52.9785 12.4023 31.7383 -8.83789 31.7383 -35.2051 C 31.7383 -61.5723 52.9297 -82.8125 79.2969 -82.8125 C 105.664 -82.8125 126.953 -61.5723 126.953 -35.2051 C 127.002 -8.83789 105.713 12.4023 79.3457 12.4023 Z M 74.4629 -8.05664 C 77.8809 -8.05664 80.4688 -10.6445 80.4688 -14.0137 L 80.4688 -22.998 L 80.8105 -22.998 C 90.0391 -22.998 94.9707 -18.8477 98.3398 -12.8906 C 100.098 -9.76562 101.904 -8.64258 104.443 -8.64258 C 108.203 -8.64258 110.352 -12.4023 110.352 -20.0195 C 110.352 -41.2109 100 -53.7598 80.8105 -53.7598 L 80.4688 -53.7598 L 80.4688 -62.8906 C 80.4688 -66.2598 77.8809 -68.9453 74.4629 -68.9453 C 72.3633 -68.9453 70.752 -68.1152 68.457 -66.0156 L 43.5059 -42.9688 C 42.2363 -41.8457 41.5039 -40.0879 41.5039 -38.4766 C 41.5039 -37.0117 42.1875 -35.1074 43.5059 -33.9355 L 68.457 -10.8887 C 70.5566 -8.93555 72.2656 -8.05664 74.4629 -8.05664 Z"/>
  </g>
  <g id="Heavy-L" transform="matrix(1 0 0 1 2558.39 1556)">
   <path d="M 78.2715 31.7871 C 115.088 31.7871 145.312 1.61133 145.312 -35.2051 C 145.312 -72.0215 115.039 -102.197 78.2715 -102.197 C 41.4551 -102.197 11.2793 -72.0215 11.2793 -35.2051 C 11.2793 1.61133 41.5039 31.7871 78.2715 31.7871 Z M 78.2715 14.0137 C 51.0254 14.0137 29.0527 -7.95898 29.0527 -35.2051 C 29.0527 -62.5 50.9766 -84.4727 78.2715 -84.4727 C 105.518 -84.4727 127.49 -62.5 127.539 -35.2051 C 127.539 -7.95898 105.566 14.0137 78.2715 14.0137 Z M 73.1445 -8.1543 C 76.2695 -8.1543 78.5645 -10.5469 78.5645 -13.623 L 78.5645 -23.6328 L 79.1016 -23.6328 C 89.502 -23.6328 95.3125 -19.6289 99.2188 -12.4023 C 100.83 -9.57031 102.49 -8.64258 104.785 -8.64258 C 108.057 -8.64258 110.059 -11.8164 110.059 -18.2617 C 110.059 -40.625 99.4141 -53.7109 79.1016 -53.7109 L 78.5645 -53.7109 L 78.5645 -63.8672 C 78.5645 -66.9434 76.2695 -69.3848 73.1445 -69.3848 C 71.1914 -69.3848 69.7266 -68.6035 67.5781 -66.6504 L 42.0898 -43.0664 C 40.8203 -41.8457 40.1855 -40.2832 40.1855 -38.7695 C 40.1855 -37.3535 40.7715 -35.6445 42.0898 -34.4238 L 67.5781 -10.8398 C 69.5312 -8.98438 71.0938 -8.1543 73.1445 -8.1543 Z"/>
  </g>
  <g id="Bold-L" transform="matrix(1 0 0 1 2262.88 1556)">
   <path d="M 77.0996 30.6152 C 113.232 30.6152 142.92 0.878906 142.92 -35.2051 C 142.92 -71.3379 113.184 -101.025 77.0508 -101.025 C 40.9668 -101.025 11.2793 -71.3379 11.2793 -35.2051 C 11.2793 0.878906 41.0156 30.6152 77.0996 30.6152 Z M 77.0996 15.8691 C 48.8281 15.8691 26.0742 -6.93359 26.0742 -35.2051 C 26.0742 -63.4766 48.7793 -86.2793 77.0508 -86.2793 C 105.371 -86.2793 128.125 -63.4766 128.174 -35.2051 C 128.174 -6.93359 105.371 15.8691 77.0996 15.8691 Z M 71.6797 -8.30078 C 74.4629 -8.30078 76.4648 -10.4004 76.4648 -13.1348 L 76.4648 -24.3652 L 77.1973 -24.3652 C 88.8672 -24.3652 95.6543 -20.5078 100.195 -11.9141 C 101.611 -9.375 103.174 -8.59375 105.176 -8.59375 C 107.861 -8.59375 109.717 -11.2305 109.717 -16.3086 C 109.717 -39.9414 98.7305 -53.6133 77.1973 -53.6133 L 76.4648 -53.6133 L 76.4648 -64.9414 C 76.4648 -67.6758 74.4629 -69.873 71.6797 -69.873 C 69.873 -69.873 68.5547 -69.0918 66.6016 -67.334 L 40.5273 -43.1641 C 39.209 -41.8945 38.6719 -40.4297 38.6719 -39.0625 C 38.6719 -37.793 39.209 -36.2305 40.5273 -34.9609 L 66.6016 -10.7422 C 68.3594 -9.08203 69.8242 -8.30078 71.6797 -8.30078 Z"/>
  </g>
  <g id="Semibold-L" transform="matrix(1 0 0 1 1966.97 1556)">
   <path d="M 76.2695 29.7852 C 111.914 29.7852 141.309 0.439453 141.309 -35.2051 C 141.309 -70.8496 111.865 -100.244 76.2695 -100.244 C 40.625 -100.244 11.2793 -70.8496 11.2793 -35.2051 C 11.2793 0.439453 40.6738 29.7852 76.2695 29.7852 Z M 76.2695 17.0898 C 47.3145 17.0898 24.0234 -6.25 24.0234 -35.2051 C 24.0234 -64.209 47.2656 -87.5 76.2695 -87.5 C 105.225 -87.5 128.564 -64.209 128.613 -35.2051 C 128.662 -6.25 105.273 17.0898 76.2695 17.0898 Z M 70.7031 -8.39844 C 73.1934 -8.39844 75.0488 -10.3027 75.0488 -12.793 L 75.0488 -24.9023 L 75.9277 -24.9023 C 88.4277 -24.9023 95.9473 -21.0938 100.879 -11.5723 C 102.148 -9.22852 103.662 -8.59375 105.42 -8.59375 C 107.715 -8.59375 109.473 -10.791 109.473 -14.9902 C 109.473 -39.502 98.2422 -53.5645 75.9277 -53.5645 L 75.0488 -53.5645 L 75.0488 -65.7227 C 75.0488 -68.1641 73.1934 -70.2148 70.6543 -70.2148 C 68.9453 -70.2148 67.7246 -69.4824 65.9668 -67.8223 L 39.502 -43.2129 C 38.0859 -41.9434 37.5977 -40.5762 37.5977 -39.3066 C 37.5977 -38.0859 38.0859 -36.6211 39.502 -35.3516 L 65.9668 -10.6445 C 67.5781 -9.17969 68.9453 -8.39844 70.7031 -8.39844 Z"/>
  </g>
  <g id="Medium-L" transform="matrix(1 0 0 1 1670.87 1556)">
   <path d="M 75.6836 29.1992 C 110.938 29.1992 140.088 0.0488281 140.088 -35.2051 C 140.088 -70.459 110.889 -99.6094 75.6348 -99.6094 C 40.3809 -99.6094 11.2793 -70.459 11.2793 -35.2051 C 11.2793 0.0488281 40.3809 29.1992 75.6836 29.1992 Z M 75.6836 18.0664 C 46.1426 18.0664 22.4609 -5.71289 22.4609 -35.2051 C 22.4609 -64.6973 46.1426 -88.4766 75.6348 -88.4766 C 105.127 -88.4766 128.906 -64.6973 128.906 -35.2051 C 128.955 -5.71289 105.176 18.0664 75.6836 18.0664 Z M 69.9219 -8.44727 C 72.2656 -8.44727 73.9258 -10.2051 73.9258 -12.5 L 73.9258 -25.293 L 74.9023 -25.293 C 88.1348 -25.293 96.0938 -21.5332 101.416 -11.3281 C 102.588 -9.13086 104.004 -8.59375 105.615 -8.59375 C 107.617 -8.59375 109.277 -10.4492 109.277 -13.9648 C 109.277 -39.1602 97.9004 -53.5156 74.9023 -53.5156 L 73.9258 -53.5156 L 73.9258 -66.2598 C 73.9258 -68.5547 72.2656 -70.459 69.873 -70.459 C 68.2617 -70.459 67.1387 -69.7266 65.4297 -68.1641 L 38.6719 -43.2617 C 37.2559 -41.9922 36.8164 -40.6738 36.8164 -39.4531 C 36.8164 -38.2812 37.3047 -36.9629 38.6719 -35.6445 L 65.4297 -10.5957 C 66.9434 -9.22852 68.2617 -8.44727 69.9219 -8.44727 Z"/>
  </g>
  <g id="Regular-L" transform="matrix(1 0 0 1 1374.97 1556)">
   <path d="M 74.8535 28.3691 C 109.668 28.3691 138.477 -0.390625 138.477 -35.2051 C 138.477 -70.0195 109.619 -98.7793 74.8047 -98.7793 C 40.0391 -98.7793 11.2793 -70.0195 11.2793 -35.2051 C 11.2793 -0.390625 40.0879 28.3691 74.8535 28.3691 Z M 74.8535 19.2871 C 44.6777 19.2871 20.4102 -5.0293 20.4102 -35.2051 C 20.4102 -65.3809 44.6289 -89.6973 74.8047 -89.6973 C 105.029 -89.6973 129.297 -65.3809 129.346 -35.2051 C 129.395 -5.0293 105.078 19.2871 74.8535 19.2871 Z M 68.9453 -8.54492 C 71.0449 -8.54492 72.5098 -10.1074 72.5098 -12.207 L 72.5098 -25.7812 L 73.6328 -25.7812 C 87.6953 -25.7812 96.3867 -22.1191 102.051 -10.9863 C 103.125 -8.98438 104.443 -8.54492 105.859 -8.54492 C 107.471 -8.54492 109.033 -10.0098 109.033 -12.6465 C 109.033 -38.6719 97.4121 -53.4668 73.6328 -53.4668 L 72.5098 -53.4668 L 72.5098 -66.9922 C 72.5098 -69.0918 71.0449 -70.8008 68.8965 -70.8008 C 67.334 -70.8008 66.3086 -70.0684 64.7949 -68.6523 L 37.5977 -43.3105 C 36.1816 -41.9922 35.791 -40.7715 35.791 -39.6973 C 35.791 -38.5742 36.2305 -37.3535 37.5977 -36.0352 L 64.7949 -10.5469 C 66.1621 -9.27734 67.3828 -8.54492 68.9453 -8.54492 Z"/>
  </g>
  <g id="Light-L" transform="matrix(1 0 0 1 1079.18 1556)">
   <path d="M 73.9258 27.4902 C 108.301 27.4902 136.621 -0.830078 136.621 -35.1562 C 136.621 -69.5312 108.252 -97.8516 73.9258 -97.8516 C 39.5508 -97.8516 11.2793 -69.5312 11.2793 -35.1562 C 11.2793 -0.830078 39.5996 27.4902 73.9258 27.4902 Z M 73.9258 20.6055 C 43.1152 20.6055 18.2129 -4.3457 18.2129 -35.1562 C 18.2129 -66.0156 43.0664 -90.918 73.9258 -90.918 C 104.736 -90.918 129.688 -66.0156 129.736 -35.1562 C 129.736 -4.3457 104.785 20.6055 73.9258 20.6055 Z M 67.9688 -8.25195 C 69.8242 -8.25195 70.9961 -9.66797 70.9961 -11.4746 L 70.9961 -25.8789 L 72.3633 -25.8789 C 87.6465 -25.8789 96.8262 -21.7773 102.295 -10.498 C 103.223 -8.74023 104.248 -8.25195 105.566 -8.25195 C 107.031 -8.25195 108.35 -9.52148 108.35 -11.7676 C 108.35 -39.1113 95.459 -52.8809 72.3633 -52.8809 L 70.9961 -52.8809 L 70.9961 -67.3828 C 70.9961 -69.1895 69.8242 -70.7031 67.9199 -70.7031 C 66.6016 -70.7031 65.625 -70.0195 64.4043 -68.8965 L 36.7188 -43.1152 C 35.1074 -41.6504 34.7656 -40.5273 34.7656 -39.4531 C 34.7656 -38.4277 35.1562 -37.3047 36.7188 -35.791 L 64.4043 -9.96094 C 65.5273 -8.93555 66.6016 -8.25195 67.9688 -8.25195 Z"/>
  </g>
  <g id="Thin-L" transform="matrix(1 0 0 1 783.693 1556)">
   <path d="M 72.7051 26.3184 C 106.494 26.3184 134.18 -1.36719 134.18 -35.1074 C 134.18 -68.8965 106.494 -96.582 72.7051 -96.582 C 38.9648 -96.582 11.2793 -68.8965 11.2793 -35.1074 C 11.2793 -1.36719 38.9648 26.3184 72.7051 26.3184 Z M 72.7051 22.3145 C 41.0156 22.3145 15.2832 -3.41797 15.2832 -35.1074 C 15.2832 -66.8457 41.0156 -92.5781 72.7051 -92.5781 C 104.395 -92.5781 130.176 -66.8457 130.176 -35.1074 C 130.176 -3.41797 104.443 22.3145 72.7051 22.3145 Z M 66.6992 -7.86133 C 68.2129 -7.86133 69.043 -9.0332 69.043 -10.498 L 69.043 -25.9766 L 70.6543 -25.9766 C 87.5977 -25.9766 97.4609 -21.3379 102.637 -9.91211 C 103.32 -8.39844 104.004 -7.86133 105.176 -7.86133 C 106.396 -7.86133 107.471 -8.88672 107.471 -10.5469 C 107.471 -39.6484 92.8711 -52.0996 70.6543 -52.0996 L 69.043 -52.0996 L 69.043 -67.8711 C 69.043 -69.3359 68.2129 -70.5566 66.6992 -70.5566 C 65.5762 -70.5566 64.6973 -69.9707 63.916 -69.1895 L 35.5469 -42.8711 C 33.6914 -41.1621 33.4473 -40.1855 33.4473 -39.209 C 33.4473 -38.2324 33.7402 -37.207 35.5469 -35.498 L 63.916 -9.17969 C 64.6484 -8.44727 65.5762 -7.86133 66.6992 -7.86133 Z"/>
  </g>
  <g id="Ultralight-L" transform="matrix(1 0 0 1 487.616 1556)">
   <path d="M 72.1191 25.7324 C 105.566 25.7324 132.91 -1.61133 132.91 -35.1074 C 132.91 -68.5547 105.566 -95.8984 72.1191 -95.8984 C 38.623 -95.8984 11.2793 -68.5547 11.2793 -35.1074 C 11.2793 -1.61133 38.623 25.7324 72.1191 25.7324 Z M 72.1191 23.2422 C 39.9414 23.2422 13.7695 -2.97852 13.7695 -35.1074 C 13.7695 -67.2363 39.9414 -93.4082 72.1191 -93.4082 C 104.248 -93.4082 130.42 -67.2363 130.42 -35.1074 C 130.42 -2.97852 104.248 23.2422 72.1191 23.2422 Z M 66.0645 -7.66602 C 67.4316 -7.66602 68.0664 -8.74023 68.0664 -10.0098 L 68.0664 -26.0742 L 69.8242 -26.0742 C 87.5977 -26.0742 97.8027 -21.0938 102.783 -9.61914 C 103.369 -8.25195 103.857 -7.66602 104.932 -7.66602 C 106.104 -7.66602 106.982 -8.59375 106.982 -9.96094 C 106.982 -39.8926 91.5527 -51.709 69.8242 -51.709 L 68.0664 -51.709 L 68.0664 -68.1152 C 68.0664 -69.3848 67.4316 -70.459 66.0645 -70.459 C 65.0879 -70.459 64.209 -69.9219 63.6719 -69.3848 L 34.9609 -42.7734 C 32.959 -40.9668 32.7637 -39.9902 32.7637 -39.0625 C 32.7637 -38.1348 33.0566 -37.1582 34.9609 -35.3516 L 63.6719 -8.78906 C 64.209 -8.20312 65.0879 -7.66602 66.0645 -7.66602 Z"/>
  </g>
  <g id="Black-M" transform="matrix(1 0 0 1 2870.97 1126)">
   <path d="M 62.4023 18.457 C 91.9922 18.457 116.113 -5.61523 116.113 -35.2051 C 116.113 -64.7949 91.9922 -88.8672 62.4023 -88.8672 C 32.8125 -88.8672 8.74023 -64.7949 8.74023 -35.2051 C 8.74023 -5.61523 32.8125 18.457 62.4023 18.457 Z M 62.4023 0.195312 C 42.8711 0.195312 27.002 -15.625 27.002 -35.2051 C 27.002 -54.7363 42.8711 -70.6055 62.4023 -70.6055 C 81.9824 -70.6055 97.8027 -54.7363 97.8027 -35.2051 C 97.8027 -15.625 81.9824 0.195312 62.4023 0.195312 Z M 58.9355 -13.8672 C 61.9141 -13.8672 64.1113 -16.1133 64.1113 -18.9941 L 64.1113 -24.9023 L 64.209 -24.9023 C 70.5078 -24.9023 73.4375 -21.3379 75.1465 -18.2617 C 76.6602 -15.625 78.0273 -14.502 80.3711 -14.502 C 83.8379 -14.502 85.5957 -18.0176 85.5957 -25.3418 C 85.5957 -40.8691 77.2949 -49.4141 64.209 -49.4141 L 64.1113 -49.4141 L 64.1113 -55.5664 C 64.1113 -58.4473 61.9141 -60.6934 58.9355 -60.6934 C 57.2754 -60.6934 55.8594 -60.0586 54.0039 -58.3984 L 35.1074 -41.0156 C 34.082 -40.0879 33.4473 -38.6719 33.4473 -37.2559 C 33.4473 -36.0352 34.0332 -34.375 35.1074 -33.4473 L 54.0039 -16.1621 C 55.7617 -14.5508 57.1289 -13.8672 58.9355 -13.8672 Z"/>
  </g>
  <g id="Heavy-M" transform="matrix(1 0 0 1 2575.19 1126)">
   <path d="M 61.5234 17.5781 C 90.5273 17.5781 114.258 -6.15234 114.258 -35.2051 C 114.258 -64.2578 90.5273 -87.9883 61.4746 -87.9883 C 32.4707 -87.9883 8.74023 -64.2578 8.74023 -35.2051 C 8.74023 -6.15234 32.4707 17.5781 61.5234 17.5781 Z M 61.5234 1.66016 C 41.1133 1.66016 24.6582 -14.8438 24.6582 -35.2051 C 24.6582 -55.5664 41.1133 -72.0703 61.4746 -72.0703 C 81.8848 -72.0703 98.3398 -55.5664 98.3398 -35.2051 C 98.3398 -14.8438 81.8848 1.66016 61.5234 1.66016 Z M 57.7637 -14.0625 C 60.4492 -14.0625 62.4512 -16.1133 62.4512 -18.7012 L 62.4512 -25.5859 L 62.6953 -25.5859 C 69.9219 -25.5859 73.6328 -22.2656 76.0742 -17.9199 C 77.3926 -15.4785 78.7598 -14.5508 80.8105 -14.5508 C 83.7891 -14.5508 85.4492 -17.5293 85.4492 -23.6328 C 85.4492 -40.1367 77.0996 -49.4629 62.6953 -49.4629 L 62.4512 -49.4629 L 62.4512 -56.4941 C 62.4512 -59.1309 60.4492 -61.2305 57.7637 -61.2305 C 56.1523 -61.2305 54.9316 -60.5957 53.1738 -58.9844 L 33.7891 -41.1621 C 32.8125 -40.2344 32.2266 -38.916 32.2266 -37.6465 C 32.2266 -36.4746 32.7637 -34.9609 33.7891 -34.0332 L 53.1738 -16.2598 C 54.7852 -14.7461 56.1035 -14.0625 57.7637 -14.0625 Z"/>
  </g>
  <g id="Bold-M" transform="matrix(1 0 0 1 2279.5 1126)">
   <path d="M 60.498 16.5039 C 88.8672 16.5039 112.207 -6.78711 112.207 -35.2051 C 112.207 -63.623 88.8672 -86.9629 60.4492 -86.9629 C 32.0312 -86.9629 8.74023 -63.623 8.74023 -35.2051 C 8.74023 -6.78711 32.0801 16.5039 60.498 16.5039 Z M 60.498 3.22266 C 39.1602 3.22266 22.0703 -13.916 22.0703 -35.2051 C 22.0703 -56.4941 39.1602 -73.6816 60.4492 -73.6816 C 81.7383 -73.6816 98.9258 -56.4941 98.9258 -35.2051 C 98.9746 -13.916 81.7871 3.22266 60.498 3.22266 Z M 56.4453 -14.3066 C 58.8379 -14.3066 60.5469 -16.0645 60.5469 -18.4082 L 60.5469 -26.3672 L 60.9863 -26.3672 C 69.2383 -26.3672 73.9258 -23.291 77.0508 -17.4805 C 78.2715 -15.332 79.541 -14.5996 81.2988 -14.5996 C 83.6914 -14.5996 85.2539 -16.9922 85.2539 -21.7773 C 85.2539 -39.3066 76.9531 -49.5117 60.9863 -49.5117 L 60.5469 -49.5117 L 60.5469 -57.6172 C 60.5469 -59.9121 58.8379 -61.7676 56.4453 -61.7676 C 54.9316 -61.7676 53.8574 -61.1816 52.1973 -59.668 L 32.373 -41.3086 C 31.3477 -40.3809 30.9082 -39.1602 30.9082 -38.0371 C 30.9082 -36.9629 31.3477 -35.6445 32.373 -34.7168 L 52.1973 -16.3086 C 53.7109 -14.9414 54.8828 -14.3066 56.4453 -14.3066 Z"/>
  </g>
  <g id="Semibold-M" transform="matrix(1 0 0 1 1983.5 1126)">
   <path d="M 59.7656 15.8203 C 87.7441 15.8203 110.791 -7.22656 110.791 -35.2051 C 110.791 -63.1836 87.6953 -86.2793 59.7656 -86.2793 C 31.7871 -86.2793 8.74023 -63.1836 8.74023 -35.2051 C 8.74023 -7.22656 31.7871 15.8203 59.7656 15.8203 Z M 59.7656 4.3457 C 37.8418 4.3457 20.2637 -13.2812 20.2637 -35.2051 C 20.2637 -57.1289 37.793 -74.8047 59.7656 -74.8047 C 81.6895 -74.8047 99.3164 -57.1289 99.3652 -35.2051 C 99.3652 -13.2812 81.6895 4.3457 59.7656 4.3457 Z M 55.5664 -14.4531 C 57.7148 -14.4531 59.2773 -16.0645 59.2773 -18.1641 L 59.2773 -26.9043 L 59.8145 -26.9043 C 68.7988 -26.9043 74.0723 -24.0234 77.7344 -17.1875 C 78.8574 -15.2344 80.127 -14.6484 81.5918 -14.6484 C 83.6426 -14.6484 85.1074 -16.6016 85.1074 -20.459 C 85.1074 -38.7207 76.8066 -49.5605 59.8145 -49.5605 L 59.2773 -49.5605 L 59.2773 -58.3496 C 59.2773 -60.4492 57.7148 -62.1582 55.5176 -62.1582 C 54.1016 -62.1582 53.0762 -61.5723 51.5625 -60.1562 L 31.3965 -41.4062 C 30.3711 -40.4785 29.9316 -39.3555 29.9316 -38.3301 C 29.9316 -37.3047 30.3711 -36.084 31.3965 -35.1562 L 51.5625 -16.3574 C 52.9297 -15.0879 54.1016 -14.4531 55.5664 -14.4531 Z"/>
  </g>
  <g id="Medium-M" transform="matrix(1 0 0 1 1687.3 1126)">
   <path d="M 59.2285 15.2832 C 86.9141 15.2832 109.766 -7.56836 109.766 -35.2051 C 109.766 -62.8906 86.8652 -85.7422 59.1797 -85.7422 C 31.543 -85.7422 8.74023 -62.8906 8.74023 -35.2051 C 8.74023 -7.56836 31.5918 15.2832 59.2285 15.2832 Z M 59.2285 5.17578 C 36.8164 5.17578 18.8965 -12.8418 18.8965 -35.2051 C 18.8965 -57.6172 36.8164 -75.6348 59.1797 -75.6348 C 81.5918 -75.6348 99.6094 -57.6172 99.6582 -35.2051 C 99.707 -12.8418 81.6406 5.17578 59.2285 5.17578 Z M 54.8828 -14.5508 C 56.8359 -14.5508 58.3008 -16.0645 58.3008 -18.0176 L 58.3008 -27.3438 L 58.9355 -27.3438 C 68.457 -27.3438 74.2188 -24.5605 78.2715 -16.9434 C 79.2969 -15.1367 80.5176 -14.6973 81.8848 -14.6973 C 83.5938 -14.6973 85.0098 -16.3574 85.0098 -19.4824 C 85.0098 -38.2324 76.709 -49.6094 58.9355 -49.6094 L 58.3008 -49.6094 L 58.3008 -58.9355 C 58.3008 -60.8398 56.8359 -62.4512 54.834 -62.4512 C 53.4668 -62.4512 52.5391 -61.8652 51.0742 -60.498 L 30.6152 -41.5039 C 29.6387 -40.5762 29.248 -39.502 29.248 -38.5254 C 29.248 -37.5488 29.6387 -36.4746 30.6152 -35.498 L 51.0742 -16.4062 C 52.3926 -15.1855 53.4668 -14.5508 54.8828 -14.5508 Z"/>
  </g>
  <g id="Regular-M" transform="matrix(1 0 0 1 1391.3 1126)">
   <path d="M 58.5449 14.5508 C 85.791 14.5508 108.35 -8.00781 108.35 -35.2539 C 108.35 -62.4512 85.7422 -85.0586 58.4961 -85.0586 C 31.2988 -85.0586 8.74023 -62.4512 8.74023 -35.2539 C 8.74023 -8.00781 31.3477 14.5508 58.5449 14.5508 Z M 58.5449 6.25 C 35.498 6.25 17.0898 -12.207 17.0898 -35.2539 C 17.0898 -58.252 35.4492 -76.7578 58.4961 -76.7578 C 81.543 -76.7578 100 -58.252 100.049 -35.2539 C 100.098 -12.207 81.5918 6.25 58.5449 6.25 Z M 53.9551 -14.7461 C 55.7129 -14.7461 57.0312 -16.0156 57.0312 -17.7734 L 57.0312 -27.832 L 57.8125 -27.832 C 67.9688 -27.832 74.4141 -25.293 78.9551 -16.6992 C 79.834 -15.0391 81.0547 -14.7461 82.1777 -14.7461 C 83.5449 -14.7461 84.9121 -15.9668 84.9121 -18.2129 C 84.9121 -37.6953 76.6113 -49.6582 57.8125 -49.6582 L 57.0312 -49.6582 L 57.0312 -59.668 C 57.0312 -61.377 55.7129 -62.8418 53.9062 -62.8418 C 52.6367 -62.8418 51.8066 -62.2559 50.3906 -60.9863 L 29.6387 -41.6016 C 28.6621 -40.6738 28.3203 -39.6973 28.3203 -38.7695 C 28.3203 -37.8906 28.6621 -36.9141 29.6387 -35.9863 L 50.3906 -16.4551 C 51.6602 -15.332 52.6855 -14.7461 53.9551 -14.7461 Z"/>
  </g>
  <g id="Light-M" transform="matrix(1 0 0 1 1095.42 1126)">
   <path d="M 57.7148 13.7695 C 84.5215 13.7695 106.689 -8.39844 106.689 -35.2051 C 106.689 -62.0117 84.5215 -84.1797 57.666 -84.1797 C 30.8594 -84.1797 8.74023 -62.0117 8.74023 -35.2051 C 8.74023 -8.39844 30.9082 13.7695 57.7148 13.7695 Z M 57.7148 7.4707 C 34.082 7.4707 15.0879 -11.5723 15.0879 -35.2051 C 15.0879 -58.8379 34.082 -77.832 57.666 -77.832 C 81.2988 -77.832 100.342 -58.8379 100.391 -35.2051 C 100.391 -11.5723 81.3477 7.4707 57.7148 7.4707 Z M 53.125 -14.4531 C 54.6387 -14.4531 55.7129 -15.625 55.7129 -17.1387 L 55.7129 -27.9297 L 56.6406 -27.9297 C 67.9688 -27.9297 74.8535 -24.9512 79.1992 -16.2598 C 79.9316 -14.7949 80.9082 -14.4531 81.9336 -14.4531 C 83.1543 -14.4531 84.2773 -15.5273 84.2773 -17.4316 C 84.2773 -38.0371 74.8535 -49.1699 56.6406 -49.1699 L 55.7129 -49.1699 L 55.7129 -59.9609 C 55.7129 -61.4746 54.6387 -62.7441 53.0762 -62.7441 C 51.9531 -62.7441 51.1719 -62.207 50.0977 -61.1816 L 28.8574 -41.4551 C 27.6855 -40.3809 27.3926 -39.4531 27.3926 -38.623 C 27.3926 -37.7441 27.7344 -36.8652 28.8574 -35.791 L 50.0977 -15.918 C 51.0742 -14.9902 51.9531 -14.4531 53.125 -14.4531 Z"/>
  </g>
  <g id="Thin-M" transform="matrix(1 0 0 1 799.806 1126)">
   <path d="M 56.6406 12.7441 C 82.9102 12.7441 104.492 -8.83789 104.492 -35.1562 C 104.492 -61.4746 82.9102 -83.0566 56.5918 -83.0566 C 30.3223 -83.0566 8.74023 -61.4746 8.74023 -35.1562 C 8.74023 -8.83789 30.3223 12.7441 56.6406 12.7441 Z M 56.6406 8.98438 C 32.2266 8.98438 12.4512 -10.791 12.4512 -35.1562 C 12.4512 -59.5215 32.2266 -79.2969 56.5918 -79.2969 C 81.0059 -79.2969 100.781 -59.5215 100.781 -35.1562 C 100.781 -10.791 81.0059 8.98438 56.6406 8.98438 Z M 51.9531 -14.1113 C 53.2227 -14.1113 53.9551 -15.0879 53.9551 -16.2598 L 53.9551 -28.0273 L 55.127 -28.0273 C 67.9199 -28.0273 75.3906 -24.5605 79.4922 -15.7715 C 80.0293 -14.502 80.6641 -14.1113 81.5918 -14.1113 C 82.6172 -14.1113 83.4961 -14.9414 83.4961 -16.3574 C 83.4961 -38.5254 72.5098 -48.4863 55.127 -48.4863 L 53.9551 -48.4863 L 53.9551 -60.4004 C 53.9551 -61.6211 53.2227 -62.5977 51.9531 -62.5977 C 51.0254 -62.5977 50.3418 -62.1582 49.6582 -61.4746 L 27.832 -41.2109 C 26.416 -39.9414 26.2207 -39.1602 26.2207 -38.3789 C 26.2207 -37.5977 26.4648 -36.7676 27.832 -35.498 L 49.6582 -15.2344 C 50.293 -14.5996 51.0742 -14.1113 51.9531 -14.1113 Z"/>
  </g>
  <g id="Ultralight-M" transform="matrix(1 0 0 1 503.656 1126)">
   <path d="M 56.0547 12.207 C 82.0801 12.207 103.369 -9.08203 103.369 -35.1562 C 103.369 -61.1816 82.0801 -82.4707 56.0547 -82.4707 C 30.0293 -82.4707 8.74023 -61.1816 8.74023 -35.1562 C 8.74023 -9.08203 30.0293 12.207 56.0547 12.207 Z M 56.0547 9.81445 C 31.2988 9.81445 11.1328 -10.3516 11.1328 -35.1562 C 11.1328 -59.9121 31.2988 -80.0781 56.0547 -80.0781 C 80.8594 -80.0781 100.977 -59.9121 100.977 -35.1562 C 100.977 -10.3516 80.8594 9.81445 56.0547 9.81445 Z M 51.3672 -13.916 C 52.4902 -13.916 53.0273 -14.7949 53.0273 -15.8203 L 53.0273 -28.0762 L 54.3457 -28.0762 C 67.8711 -28.0762 75.6836 -24.3164 79.6387 -15.4785 C 80.127 -14.3555 80.5176 -13.916 81.3965 -13.916 C 82.3242 -13.916 83.0566 -14.6484 83.0566 -15.8203 C 83.0566 -38.7695 71.3379 -48.1445 54.3457 -48.1445 L 53.0273 -48.1445 L 53.0273 -60.6445 C 53.0273 -61.6699 52.4902 -62.5488 51.3672 -62.5488 C 50.5859 -62.5488 49.9023 -62.1094 49.4141 -61.6211 L 27.2461 -41.1133 C 25.7812 -39.7461 25.5859 -38.9648 25.5859 -38.2324 C 25.5859 -37.5 25.8301 -36.7676 27.2461 -35.3516 L 49.4141 -14.8438 C 49.9023 -14.3555 50.5859 -13.916 51.3672 -13.916 Z"/>
  </g>
  <g id="Black-S" transform="matrix(1 0 0 1 2884.57 696)">
   <path d="M 48.8281 6.78711 C 71.9727 6.78711 90.8203 -12.0605 90.8203 -35.2051 C 90.8203 -58.3496 71.9727 -77.1973 48.8281 -77.1973 C 25.6836 -77.1973 6.83594 -58.3496 6.83594 -35.2051 C 6.83594 -12.0605 25.6836 6.78711 48.8281 6.78711 Z M 48.8281 -7.37305 C 33.4473 -7.37305 20.9961 -19.8242 20.9961 -35.2051 C 20.9961 -50.5859 33.4473 -63.0371 48.8281 -63.0371 C 64.209 -63.0371 76.6602 -50.5859 76.6602 -35.2051 C 76.6602 -19.8242 64.209 -7.37305 48.8281 -7.37305 Z M 46.0938 -18.5059 C 48.3887 -18.5059 50.0977 -20.2637 50.0977 -22.5098 L 50.0977 -27.1973 L 50.1953 -27.1973 C 55.1758 -27.1973 57.5195 -24.4141 58.9355 -21.9238 C 60.1074 -19.873 61.1816 -18.9941 62.9883 -18.9941 C 65.6738 -18.9941 67.041 -21.7285 67.041 -27.3438 C 67.041 -39.5996 60.5469 -46.3379 50.1953 -46.3379 L 50.0977 -46.3379 L 50.0977 -51.2207 C 50.0977 -53.4668 48.3887 -55.2246 46.0938 -55.2246 C 44.7754 -55.2246 43.7012 -54.7363 42.2363 -53.418 L 27.3926 -39.7949 C 26.6113 -39.0625 26.123 -37.9395 26.123 -36.8652 C 26.123 -35.8887 26.5625 -34.6191 27.3926 -33.8867 L 42.2363 -20.3125 C 43.6035 -19.043 44.6777 -18.5059 46.0938 -18.5059 Z"/>
  </g>
  <g id="Heavy-S" transform="matrix(1 0 0 1 2588.47 696)">
   <path d="M 48.2422 6.15234 C 70.9961 6.15234 89.5996 -12.4512 89.5996 -35.2051 C 89.5996 -57.959 70.9961 -76.6113 48.1934 -76.6113 C 25.4395 -76.6113 6.83594 -57.959 6.83594 -35.2051 C 6.83594 -12.4512 25.4395 6.15234 48.2422 6.15234 Z M 48.2422 -6.39648 C 32.2754 -6.39648 19.4336 -19.2871 19.4336 -35.2051 C 19.4336 -51.1719 32.2754 -64.0137 48.1934 -64.0137 C 64.1602 -64.0137 77.002 -51.1719 77.0508 -35.2051 C 77.0508 -19.2871 64.1602 -6.39648 48.2422 -6.39648 Z M 45.3125 -18.7012 C 47.4121 -18.7012 48.9746 -20.3125 48.9746 -22.3633 L 48.9746 -27.7344 L 49.1699 -27.7344 C 54.7363 -27.7344 57.666 -25.1465 59.6191 -21.6797 C 60.6934 -19.7754 61.7676 -19.043 63.3301 -19.043 C 65.6738 -19.043 66.9922 -21.3867 66.9922 -26.1719 C 66.9922 -38.9648 60.6445 -46.4355 49.1699 -46.4355 L 48.9746 -46.4355 L 48.9746 -51.9043 C 48.9746 -54.0039 47.4121 -55.6152 45.2637 -55.6152 C 43.9941 -55.6152 43.0176 -55.127 41.6016 -53.8574 L 26.5137 -39.8926 C 25.7324 -39.209 25.293 -38.1348 25.293 -37.1582 C 25.293 -36.2305 25.6836 -35.0586 26.5137 -34.375 L 41.6016 -20.4102 C 42.9199 -19.2383 43.9453 -18.7012 45.3125 -18.7012 Z"/>
  </g>
  <g id="Bold-S" transform="matrix(1 0 0 1 2292.44 696)">
   <path d="M 47.5586 5.46875 C 69.873 5.46875 88.2324 -12.8906 88.2324 -35.2051 C 88.2324 -57.5684 69.873 -75.9277 47.5098 -75.9277 C 25.1953 -75.9277 6.83594 -57.5684 6.83594 -35.2051 C 6.83594 -12.8906 25.1953 5.46875 47.5586 5.46875 Z M 47.5586 -5.32227 C 30.957 -5.32227 17.6758 -18.6523 17.6758 -35.2051 C 17.6758 -51.8066 30.957 -65.1367 47.5098 -65.1367 C 64.1113 -65.1367 77.4414 -51.8066 77.4414 -35.2051 C 77.4414 -18.6523 64.1113 -5.32227 47.5586 -5.32227 Z M 44.3848 -18.8965 C 46.2891 -18.8965 47.7051 -20.3125 47.7051 -22.168 L 47.7051 -28.3203 L 47.998 -28.3203 C 54.1992 -28.3203 57.8125 -26.0254 60.3516 -21.3867 C 61.3281 -19.6777 62.4023 -19.1406 63.7695 -19.1406 C 65.6738 -19.1406 66.9434 -21.0449 66.9434 -24.8047 C 66.9434 -38.2812 60.6934 -46.582 47.998 -46.582 L 47.7051 -46.582 L 47.7051 -52.7344 C 47.7051 -54.5898 46.2891 -56.0547 44.3848 -56.0547 C 43.1641 -56.0547 42.2852 -55.5664 40.918 -54.3457 L 25.4883 -40.0391 C 24.7559 -39.3555 24.3652 -38.3789 24.3652 -37.5 C 24.3652 -36.6211 24.7559 -35.5957 25.4883 -34.9121 L 40.918 -20.5566 C 42.1875 -19.4336 43.1152 -18.8965 44.3848 -18.8965 Z"/>
  </g>
  <g id="Semibold-S" transform="matrix(1 0 0 1 1996.2 696)">
   <path d="M 47.0703 4.98047 C 69.0918 4.98047 87.3047 -13.1836 87.3047 -35.2539 C 87.3047 -57.2754 69.0918 -75.4883 47.0215 -75.4883 C 25 -75.4883 6.83594 -57.2754 6.83594 -35.2539 C 6.83594 -13.1836 25.0488 4.98047 47.0703 4.98047 Z M 47.0703 -4.58984 C 30.0781 -4.58984 16.4551 -18.2129 16.4551 -35.2539 C 16.4551 -52.2461 30.0293 -65.8691 47.0215 -65.8691 C 64.0625 -65.8691 77.6855 -52.2461 77.7344 -35.2539 C 77.7344 -18.2129 64.0625 -4.58984 47.0703 -4.58984 Z M 43.75 -19.043 C 45.5078 -19.043 46.8262 -20.3613 46.8262 -22.0703 L 46.8262 -28.7109 L 47.2168 -28.7109 C 53.8574 -28.7109 57.9102 -26.5625 60.8398 -21.1914 C 61.7676 -19.6289 62.8418 -19.1895 64.0137 -19.1895 C 65.6738 -19.1895 66.8945 -20.8008 66.8945 -23.877 C 66.8945 -37.793 60.7422 -46.6309 47.2168 -46.6309 L 46.8262 -46.6309 L 46.8262 -53.2715 C 46.8262 -54.9805 45.5078 -56.3965 43.75 -56.3965 C 42.5781 -56.3965 41.748 -55.9082 40.4785 -54.6875 L 24.8047 -40.1367 C 24.0723 -39.4531 23.7305 -38.5254 23.7305 -37.6953 C 23.7305 -36.9141 24.0723 -35.9375 24.8047 -35.2539 L 40.4785 -20.6055 C 41.6504 -19.5312 42.5781 -19.043 43.75 -19.043 Z"/>
  </g>
  <g id="Medium-S" transform="matrix(1 0 0 1 1699.83 696)">
   <path d="M 46.7285 4.63867 C 68.5547 4.63867 86.6211 -13.4277 86.6211 -35.2539 C 86.6211 -57.0312 68.5059 -75.1465 46.6797 -75.1465 C 24.8535 -75.1465 6.83594 -57.0312 6.83594 -35.2539 C 6.83594 -13.4277 24.9023 4.63867 46.7285 4.63867 Z M 46.7285 -4.00391 C 29.3945 -4.00391 15.5273 -17.9199 15.5273 -35.2539 C 15.5273 -52.5879 29.3457 -66.4551 46.6797 -66.4551 C 64.0137 -66.4551 77.8809 -52.5879 77.9297 -35.2539 C 77.9785 -17.9199 64.0625 -4.00391 46.7285 -4.00391 Z M 43.3105 -19.1406 C 44.9219 -19.1406 46.1426 -20.3613 46.1426 -21.9727 L 46.1426 -29.0039 L 46.6309 -29.0039 C 53.6133 -29.0039 57.959 -27.002 61.2305 -21.0938 C 62.0605 -19.5801 63.1836 -19.2383 64.2578 -19.2383 C 65.6738 -19.2383 66.8457 -20.6055 66.8457 -23.1934 C 66.8457 -37.4512 60.791 -46.7285 46.6309 -46.7285 L 46.1426 -46.7285 L 46.1426 -53.6621 C 46.1426 -55.2734 44.9219 -56.5918 43.2617 -56.5918 C 42.1387 -56.5918 41.3574 -56.1523 40.0879 -54.9805 L 24.2676 -40.2344 C 23.584 -39.5508 23.2422 -38.6719 23.2422 -37.8906 C 23.2422 -37.1094 23.584 -36.2305 24.2676 -35.5469 L 40.0879 -20.7031 C 41.2598 -19.6289 42.1387 -19.1406 43.3105 -19.1406 Z"/>
  </g>
  <g id="Regular-S" transform="matrix(1 0 0 1 1403.58 696)">
   <path d="M 46.2402 4.15039 C 67.7734 4.15039 85.6934 -13.7207 85.6934 -35.2539 C 85.6934 -56.7871 67.7246 -74.6582 46.1914 -74.6582 C 24.707 -74.6582 6.83594 -56.7871 6.83594 -35.2539 C 6.83594 -13.7207 24.7559 4.15039 46.2402 4.15039 Z M 46.2402 -3.27148 C 28.5156 -3.27148 14.3555 -17.4805 14.3555 -35.2539 C 14.3555 -53.0273 28.4668 -67.2363 46.1914 -67.2363 C 63.9648 -67.2363 78.1738 -53.0273 78.2227 -35.2539 C 78.2715 -17.4805 64.0137 -3.27148 46.2402 -3.27148 Z M 42.6758 -19.2871 C 44.1895 -19.2871 45.3125 -20.4102 45.3125 -21.875 L 45.3125 -29.3945 L 45.8008 -29.3945 C 53.2715 -29.3945 58.0566 -27.5879 61.7676 -20.8984 C 62.5 -19.4824 63.5742 -19.2871 64.502 -19.2871 C 65.6738 -19.2871 66.7969 -20.3613 66.7969 -22.2656 C 66.7969 -36.9629 60.8398 -46.7773 45.8008 -46.7773 L 45.3125 -46.7773 L 45.3125 -54.1992 C 45.3125 -55.6641 44.1895 -56.9336 42.627 -56.9336 C 41.5527 -56.9336 40.8691 -56.4453 39.6484 -55.3223 L 23.584 -40.2832 C 22.9004 -39.6484 22.6074 -38.8184 22.6074 -38.0859 C 22.6074 -37.4023 22.9004 -36.5723 23.584 -35.8887 L 39.6484 -20.752 C 40.7227 -19.7754 41.6016 -19.2871 42.6758 -19.2871 Z"/>
  </g>
  <g id="Light-S" transform="matrix(1 0 0 1 1107.6 696)">
   <path d="M 45.5078 3.4668 C 66.6992 3.4668 84.2285 -14.0625 84.2285 -35.2051 C 84.2285 -56.3965 66.6504 -73.9258 45.5078 -73.9258 C 24.3164 -73.9258 6.83594 -56.3965 6.83594 -35.2051 C 6.83594 -14.0625 24.3652 3.4668 45.5078 3.4668 Z M 45.5078 -2.24609 C 27.2461 -2.24609 12.5977 -16.9434 12.5977 -35.2051 C 12.5977 -53.5156 27.1973 -68.2129 45.5078 -68.2129 C 63.7695 -68.2129 78.4668 -53.5156 78.5156 -35.2051 C 78.5156 -16.9434 63.8184 -2.24609 45.5078 -2.24609 Z M 41.9434 -19.043 C 43.2129 -19.043 44.1406 -20.0195 44.1406 -21.2891 L 44.1406 -29.4922 L 44.8242 -29.4922 C 53.2227 -29.4922 58.4473 -27.2949 61.9629 -20.5566 C 62.5977 -19.2871 63.4277 -19.043 64.2578 -19.043 C 65.2832 -19.043 66.2598 -19.9707 66.2598 -21.582 C 66.2598 -37.3047 59.3262 -46.3379 44.8242 -46.3379 L 44.1406 -46.3379 L 44.1406 -54.4922 C 44.1406 -55.7617 43.2129 -56.8359 41.8945 -56.8359 C 40.9668 -56.8359 40.332 -56.3965 39.3555 -55.5176 L 22.9004 -40.1367 C 22.0703 -39.3555 21.8262 -38.623 21.8262 -37.9395 C 21.8262 -37.2559 22.0703 -36.5234 22.9004 -35.7422 L 39.3555 -20.3125 C 40.2344 -19.4824 40.9668 -19.043 41.9434 -19.043 Z"/>
  </g>
  <g id="Thin-S" transform="matrix(1 0 0 1 811.867 696)">
   <path d="M 44.5801 2.53906 C 65.2832 2.53906 82.2754 -14.4531 82.2754 -35.2051 C 82.2754 -55.9082 65.2344 -72.9004 44.5312 -72.9004 C 23.8281 -72.9004 6.83594 -55.9082 6.83594 -35.2051 C 6.83594 -14.4531 23.877 2.53906 44.5801 2.53906 Z M 44.5801 -0.878906 C 25.5859 -0.878906 10.2539 -16.2109 10.2539 -35.2051 C 10.2539 -54.1504 25.5859 -69.4824 44.5312 -69.4824 C 63.5254 -69.4824 78.8574 -54.1504 78.8574 -35.2051 C 78.8574 -16.2109 63.5254 -0.878906 44.5801 -0.878906 Z M 40.918 -18.75 C 41.9434 -18.75 42.5781 -19.5312 42.5781 -20.5566 L 42.5781 -29.5898 L 43.457 -29.5898 C 53.2227 -29.5898 58.9355 -26.9531 62.207 -20.0684 C 62.6953 -19.043 63.2324 -18.75 63.9648 -18.75 C 64.7949 -18.75 65.5273 -19.4824 65.5273 -20.6543 C 65.5273 -37.6953 57.2754 -45.752 43.457 -45.752 L 42.5781 -45.752 L 42.5781 -54.8828 C 42.5781 -55.8594 41.9434 -56.7383 40.918 -56.7383 C 40.1367 -56.7383 39.5996 -56.3477 38.9648 -55.7617 L 21.9727 -39.9902 C 20.9473 -39.0137 20.752 -38.3789 20.752 -37.7441 C 20.752 -37.1094 20.9473 -36.4746 21.9727 -35.498 L 38.9648 -19.6777 C 39.5508 -19.1406 40.1855 -18.75 40.918 -18.75 Z"/>
  </g>
  <g id="Ultralight-S" transform="matrix(1 0 0 1 515.644 696)">
   <path d="M 44.043 2.05078 C 64.502 2.05078 81.2988 -14.6973 81.2988 -35.1562 C 81.2988 -55.6152 64.502 -72.3633 44.043 -72.3633 C 23.584 -72.3633 6.83594 -55.6152 6.83594 -35.1562 C 6.83594 -14.6973 23.584 2.05078 44.043 2.05078 Z M 44.043 -0.146484 C 24.7559 -0.146484 9.08203 -15.8691 9.08203 -35.1562 C 9.08203 -54.4434 24.7559 -70.166 44.043 -70.166 C 63.3789 -70.166 79.0527 -54.4434 79.0527 -35.1562 C 79.0527 -15.8691 63.3789 -0.146484 44.043 -0.146484 Z M 40.3809 -18.6035 C 41.3086 -18.6035 41.7969 -19.2871 41.7969 -20.166 L 41.7969 -29.6387 L 42.7734 -29.6387 C 53.1738 -29.6387 59.2285 -26.7578 62.3047 -19.8242 C 62.7441 -18.9453 63.1348 -18.6035 63.8184 -18.6035 C 64.5508 -18.6035 65.1855 -19.1895 65.1855 -20.166 C 65.1855 -37.9395 56.2012 -45.4102 42.7734 -45.4102 L 41.7969 -45.4102 L 41.7969 -55.0781 C 41.7969 -55.957 41.3086 -56.6406 40.3809 -56.6406 C 39.7461 -56.6406 39.209 -56.2988 38.7695 -55.8594 L 21.4844 -39.8438 C 20.3613 -38.8184 20.2148 -38.2324 20.2148 -37.6465 C 20.2148 -37.0117 20.4102 -36.4258 21.4844 -35.4004 L 38.7695 -19.3359 C 39.209 -18.9453 39.7461 -18.6035 40.3809 -18.6035 Z"/>
  </g>
 </g>
</svg>
